<svg width="46" height="45" viewBox="0 0 46 45" fill="none" xmlns="http://www.w3.org/2000/svg">
<path d="M5.1875 5.62877H40.8125M8.9375 5.62877V26.25C8.9375 30.6169 9.74375 32.0438 13.49 34.29L19.1413 37.68C21.0219 38.8125 21.9612 39.375 23 39.375C24.0388 39.375 24.9781 38.8106 26.8587 37.6819L32.5119 34.29C36.2544 32.0438 37.0625 30.6188 37.0625 26.2519V5.62689" stroke="#CAFF01" stroke-width="3" stroke-linecap="round" stroke-linejoin="round"/>
<path d="M24.1344 15.0094L25.2875 17.34C25.3854 17.5146 25.519 17.6666 25.6795 17.7862C25.8401 17.9057 26.024 17.9901 26.2194 18.0338L28.3138 18.3844C29.6525 18.6094 29.9675 19.5881 29.0019 20.5538L27.3744 22.1944C27.2314 22.3562 27.1265 22.548 27.0674 22.7556C27.0084 22.9633 26.9967 23.1816 27.0331 23.3944L27.5 25.4231C27.8675 27.0319 27.02 27.6544 25.61 26.8125L23.6488 25.6425C23.4481 25.538 23.2253 25.4834 22.9991 25.4834C22.7729 25.4834 22.55 25.538 22.3494 25.6425L20.3863 26.8125C18.9819 27.6525 18.1288 27.0244 18.4963 25.425L18.9631 23.3925C18.9993 23.18 18.9874 22.9621 18.9284 22.7548C18.8693 22.5474 18.7646 22.356 18.6219 22.1944L16.9944 20.5538C16.0363 19.5881 16.3438 18.6094 17.6825 18.3844L19.7769 18.0338C19.9709 17.9891 20.1534 17.9043 20.3126 17.7848C20.4718 17.6653 20.6042 17.5138 20.7013 17.34L21.8563 15.0094C22.4863 13.7475 23.5119 13.7475 24.1344 15.0094Z" stroke="#CAFF01" stroke-width="3" stroke-linecap="round" stroke-linejoin="round"/>
</svg>
