<svg width="45" height="45" viewBox="0 0 45 45" fill="none" xmlns="http://www.w3.org/2000/svg">
<path d="M9.64313 26.25C8.23623 23.9461 7.49448 21.2977 7.5 18.5981C7.5 10.3969 14.2162 3.75 22.5 3.75C30.7837 3.75 37.5 10.3969 37.5 18.5981C37.5055 21.2977 36.7638 23.9461 35.3569 26.25M28.125 35.625L27.8812 36.8381C27.6187 38.1637 27.4856 38.8256 27.1875 39.3506C26.7281 40.1598 25.9843 40.7693 25.1006 41.0606C24.5287 41.25 23.85 41.25 22.5 41.25C21.15 41.25 20.4712 41.25 19.8994 41.0625C19.0154 40.7707 18.2715 40.1605 17.8125 39.3506C17.5144 38.8256 17.3812 38.1637 17.1187 36.8381L16.875 35.625M13.8431 32.0588C13.6706 31.5413 13.5844 31.2806 13.5937 31.0706C13.6044 30.8535 13.6776 30.6441 13.8048 30.4677C13.9319 30.2914 14.1074 30.1556 14.31 30.0769C14.505 30 14.7787 30 15.3225 30H29.6775C30.2231 30 30.495 30 30.69 30.075C30.8929 30.1539 31.0686 30.2899 31.1957 30.4666C31.3229 30.6433 31.396 30.8532 31.4062 31.0706C31.4156 31.2806 31.3294 31.5394 31.1569 32.0588C30.8381 33.0169 30.6787 33.4969 30.4331 33.885C29.9194 34.6961 29.1141 35.2793 28.1831 35.5144C27.7369 35.625 27.2344 35.625 26.2275 35.625H18.7725C17.7656 35.625 17.2612 35.625 16.8169 35.5125C15.8862 35.2779 15.081 34.6954 14.5669 33.885C14.3212 33.4969 14.1619 33.0169 13.8431 32.0588Z" stroke="#CAFF01" stroke-width="4" stroke-linecap="round" stroke-linejoin="round"/>
<path d="M23.0775 22.5L20.3381 14.0232C20.2433 13.756 20.0667 13.5254 19.8335 13.3642C19.6003 13.203 19.3222 13.1193 19.0388 13.125C18.7553 13.1193 18.4772 13.203 18.244 13.3642C18.0108 13.5254 17.8342 13.756 17.7394 14.0232L15 22.5M28.125 13.125V22.5M16.0088 19.6875H22.0669" stroke="#CAFF01" stroke-width="3" stroke-linecap="round" stroke-linejoin="round"/>
</svg>
