<svg width="18" height="17" viewBox="0 0 18 17" fill="none" xmlns="http://www.w3.org/2000/svg">
<path d="M4.46002 16.8722V5.57386H0.707974V16.8722H4.46041H4.46002ZM2.58478 4.03154C3.89293 4.03154 4.70733 3.16396 4.70733 2.07973C4.68285 0.970804 3.89293 0.127441 2.60966 0.127441C1.32551 0.127441 0.486816 0.970804 0.486816 2.07964C0.486816 3.16386 1.30093 4.03144 2.5602 4.03144H2.58449L2.58478 4.03154ZM6.53683 16.8722H10.2886V10.5634C10.2886 10.2261 10.3131 9.88803 10.4122 9.64716C10.6833 8.97222 11.3006 8.27355 12.3374 8.27355C13.6947 8.27355 14.238 9.30954 14.238 10.8285V16.8722H17.9896V10.3941C17.9896 6.92385 16.1389 5.30898 13.6704 5.30898C11.6466 5.30898 10.7577 6.44115 10.2639 7.21226H10.2889V5.57426H6.53703C6.586 6.63417 6.53673 16.8726 6.53673 16.8726L6.53683 16.8722Z" fill="white"/>
</svg>
