<svg width="108" height="33" viewBox="0 0 108 33" fill="none" xmlns="http://www.w3.org/2000/svg">
<g clip-path="url(#clip0_174_727)">
<path d="M20.7791 9.18909V18.0442C20.7791 18.3291 20.3504 18.5125 19.9936 18.3801L0.290757 11.0713C0.114283 11.0057 0.00390625 10.8765 0.00390625 10.7353V1.87961C0.00390625 1.59469 0.432578 1.41126 0.789376 1.54426L20.4916 8.85311C20.6681 8.91867 20.7784 9.04789 20.7784 9.18909H20.7791Z" fill="#C9FF00"/>
<path d="M20.7791 20.7949V29.6499C20.7791 29.9349 20.3504 30.1183 19.9936 29.9859L0.290757 22.6771C0.114283 22.6115 0.00390625 22.4823 0.00390625 22.3411V13.486C0.00390625 13.2011 0.432578 13.0177 0.789376 13.15L20.4916 20.4589C20.6681 20.5244 20.7784 20.6537 20.7784 20.7949H20.7791Z" fill="#C9FF00"/>
<path d="M22.2281 9.18895V18.044C22.2281 18.329 22.6568 18.5124 23.0136 18.38L42.7158 11.0712C42.8922 11.0056 43.0026 10.8764 43.0026 10.7352V1.87947C43.0026 1.59456 42.5739 1.41113 42.2171 1.5435L22.5149 8.85235C22.3385 8.9179 22.2281 9.04712 22.2281 9.18832V9.18895Z" fill="#C9FF00"/>
<path d="M22.2281 20.7949V29.6499C22.2281 29.9349 22.6568 30.1183 23.0136 29.9859L42.7158 22.6771C42.8922 22.6115 43.0026 22.4823 43.0026 22.3411V13.486C43.0026 13.2011 42.5739 13.0177 42.2171 13.15L22.5149 20.4589C22.3385 20.5244 22.2281 20.6537 22.2281 20.7949Z" fill="#C9FF00"/>
<path d="M8.82119 28.1585V30.8829C8.82119 31.2239 8.54012 31.5 8.19295 31.5H0.632154C0.285623 31.5 0.00390625 31.2239 0.00390625 30.8829V25.0881C0.00390625 24.802 0.431936 24.6192 0.788735 24.7522L8.41434 27.5811C8.65884 27.6719 8.82055 27.902 8.82055 28.1585H8.82119Z" fill="#C9FF00"/>
<path d="M43.0039 25.0888V30.8835C43.0039 31.2245 42.7229 31.5006 42.3757 31.5006H34.8136C34.4664 31.5006 34.1854 31.2245 34.1854 30.8835V28.1592C34.1854 27.9026 34.3471 27.6726 34.5916 27.5818L42.2172 24.7528C42.5746 24.6204 43.0039 24.8032 43.0039 25.0888Z" fill="#C9FF00"/>
</g>
<path d="M55.3959 26V12.488H59.6679L62.8359 24.944H62.8839L66.0279 12.488H70.2759V26H67.7319L67.8999 13.592H67.8759L64.6359 26H61.0359L57.8439 13.592H57.7959L57.9399 26H55.3959ZM76.9089 26.24C76.0449 26.24 75.3729 26.072 74.8929 25.736C74.4129 25.4 74.0609 24.968 73.8369 24.44C73.6289 23.912 73.5009 23.36 73.4529 22.784C73.4049 22.192 73.3809 21.656 73.3809 21.176V16.136H75.7569V21.176C75.7569 21.672 75.8049 22.144 75.9009 22.592C75.9969 23.04 76.1969 23.4 76.5009 23.672C76.8209 23.944 77.3009 24.08 77.9409 24.08C78.5649 24.08 79.0369 23.944 79.3569 23.672C79.6769 23.384 79.8929 23.024 80.0049 22.592C80.1169 22.16 80.1809 21.712 80.1969 21.248L80.2209 16.136H82.7169V26H80.6289L80.2209 24.128H80.1729C80.1409 24.224 80.0609 24.384 79.9329 24.608C79.8049 24.832 79.6129 25.072 79.3569 25.328C79.1169 25.584 78.7969 25.8 78.3969 25.976C77.9969 26.152 77.5009 26.24 76.9089 26.24ZM85.4994 26V16.184H87.5874L87.9954 18.272H88.0434C88.0594 18.224 88.1154 18.096 88.2114 17.888C88.3234 17.664 88.4994 17.416 88.7394 17.144C88.9954 16.872 89.3314 16.64 89.7474 16.448C90.1794 16.24 90.7154 16.136 91.3554 16.136C92.2354 16.136 92.9154 16.312 93.3954 16.664C93.8754 17.016 94.2194 17.464 94.4274 18.008C94.6354 18.536 94.7634 19.088 94.8114 19.664C94.8594 20.24 94.8834 20.76 94.8834 21.224V26H92.4834V21.2C92.4834 20.672 92.4354 20.192 92.3394 19.76C92.2434 19.312 92.0354 18.96 91.7154 18.704C91.4114 18.432 90.9554 18.296 90.3474 18.296C89.7074 18.296 89.2194 18.44 88.8834 18.728C88.5474 19.016 88.3154 19.392 88.1874 19.856C88.0594 20.304 87.9954 20.784 87.9954 21.296V26H85.4994ZM99.2711 15.056C98.7431 15.072 98.3911 14.952 98.2151 14.696C98.0551 14.424 97.9751 14.104 97.9751 13.736C97.9751 13.384 98.0631 13.08 98.2391 12.824C98.4151 12.568 98.7591 12.44 99.2711 12.44C99.7671 12.44 100.095 12.568 100.255 12.824C100.431 13.08 100.519 13.384 100.519 13.736C100.519 14.104 100.431 14.416 100.255 14.672C100.095 14.912 99.7671 15.04 99.2711 15.056ZM98.0231 26V16.136H100.471V26H98.0231ZM105.2 15.056C104.672 15.072 104.32 14.952 104.144 14.696C103.984 14.424 103.904 14.104 103.904 13.736C103.904 13.384 103.992 13.08 104.168 12.824C104.344 12.568 104.688 12.44 105.2 12.44C105.696 12.44 106.024 12.568 106.184 12.824C106.36 13.08 106.448 13.384 106.448 13.736C106.448 14.104 106.36 14.416 106.184 14.672C106.024 14.912 105.696 15.04 105.2 15.056ZM103.952 26V16.136H106.4V26H103.952Z" fill="#C9FF00"/>
<defs>
<clipPath id="clip0_174_727">
<rect width="43" height="30" fill="white" transform="translate(0.00390625 1.5)"/>
</clipPath>
</defs>
</svg>
