<svg width="142" height="54" viewBox="0 0 142 54" fill="none" xmlns="http://www.w3.org/2000/svg">
<g clip-path="url(#clip0_672_727)">
<path d="M20.9344 19.6891V28.5441C20.9344 28.8291 20.5057 29.0125 20.1489 28.8801L0.44603 21.5713C0.269556 21.5057 0.15918 21.3765 0.15918 21.2353V12.3796C0.15918 12.0947 0.587851 11.9112 0.94465 12.0442L20.6469 19.3531C20.8233 19.4186 20.9337 19.5479 20.9337 19.6891H20.9344Z" fill="#CAFF01"/>
<path d="M20.9344 31.2949V40.1499C20.9344 40.4349 20.5057 40.6183 20.1489 40.4859L0.44603 33.1771C0.269556 33.1115 0.15918 32.9823 0.15918 32.8411V23.986C0.15918 23.7011 0.587851 23.5177 0.94465 23.65L20.6469 30.9589C20.8233 31.0244 20.9337 31.1537 20.9337 31.2949H20.9344Z" fill="#CAFF01"/>
<path d="M22.3833 19.6889V28.544C22.3833 28.8289 22.812 29.0124 23.1688 28.88L42.871 21.5711C43.0475 21.5056 43.1578 21.3764 43.1578 21.2352V12.3794C43.1578 12.0945 42.7292 11.9111 42.3724 12.0435L22.6702 19.3523C22.4937 19.4179 22.3833 19.5471 22.3833 19.6883V19.6889Z" fill="#CAFF01"/>
<path d="M22.3833 31.2949V40.1499C22.3833 40.4349 22.812 40.6183 23.1688 40.4859L42.871 33.1771C43.0475 33.1115 43.1578 32.9823 43.1578 32.8411V23.986C43.1578 23.7011 42.7292 23.5177 42.3724 23.65L22.6702 30.9589C22.4937 31.0244 22.3833 31.1537 22.3833 31.2949Z" fill="#CAFF01"/>
<path d="M8.97647 38.6585V41.3829C8.97647 41.7239 8.69539 42 8.34822 42H0.787427C0.440897 42 0.15918 41.7239 0.15918 41.3829V35.5881C0.15918 35.3019 0.58721 35.1191 0.944008 35.2521L8.56961 38.0811C8.81411 38.1719 8.97583 38.402 8.97583 38.6585H8.97647Z" fill="#CAFF01"/>
<path d="M43.1591 35.5887V41.3835C43.1591 41.7245 42.8781 42.0006 42.5309 42.0006H34.9688C34.6216 42.0006 34.3406 41.7245 34.3406 41.3835V38.6592C34.3406 38.4026 34.5023 38.1725 34.7468 38.0818L42.3724 35.2528C42.7298 35.1204 43.1591 35.3032 43.1591 35.5887Z" fill="#CAFF01"/>
</g>
<path d="M53.4792 42V19.48H60.5992L65.8792 40.24H65.9592L71.1992 19.48H78.2792V42H74.0392L74.3192 21.32H74.2792L68.8792 42H62.8792L57.5592 21.32H57.4792L57.7192 42H53.4792ZM89.3342 42.4C87.8942 42.4 86.7742 42.12 85.9742 41.56C85.1742 41 84.5875 40.28 84.2142 39.4C83.8675 38.52 83.6542 37.6 83.5742 36.64C83.4942 35.6533 83.4542 34.76 83.4542 33.96V25.56H87.4142V33.96C87.4142 34.7867 87.4942 35.5733 87.6542 36.32C87.8142 37.0667 88.1475 37.6667 88.6542 38.12C89.1875 38.5733 89.9875 38.8 91.0542 38.8C92.0942 38.8 92.8808 38.5733 93.4142 38.12C93.9475 37.64 94.3075 37.04 94.4942 36.32C94.6808 35.6 94.7875 34.8533 94.8142 34.08L94.8542 25.56H99.0142V42H95.5342L94.8542 38.88H94.7742C94.7208 39.04 94.5875 39.3067 94.3742 39.68C94.1608 40.0533 93.8408 40.4533 93.4142 40.88C93.0142 41.3067 92.4808 41.6667 91.8142 41.96C91.1475 42.2533 90.3208 42.4 89.3342 42.4ZM103.652 42V25.64H107.132L107.812 29.12H107.892C107.918 29.04 108.012 28.8267 108.172 28.48C108.358 28.1067 108.652 27.6933 109.052 27.24C109.478 26.7867 110.038 26.4 110.732 26.08C111.452 25.7333 112.345 25.56 113.412 25.56C114.878 25.56 116.012 25.8533 116.812 26.44C117.612 27.0267 118.185 27.7733 118.532 28.68C118.878 29.56 119.092 30.48 119.172 31.44C119.252 32.4 119.292 33.2667 119.292 34.04V42H115.292V34C115.292 33.12 115.212 32.32 115.052 31.6C114.892 30.8533 114.545 30.2667 114.012 29.84C113.505 29.3867 112.745 29.16 111.732 29.16C110.665 29.16 109.852 29.4 109.292 29.88C108.732 30.36 108.345 30.9867 108.132 31.76C107.918 32.5067 107.812 33.3067 107.812 34.16V42H103.652ZM126.604 23.76C125.724 23.7867 125.138 23.5867 124.844 23.16C124.578 22.7067 124.444 22.1733 124.444 21.56C124.444 20.9733 124.591 20.4667 124.884 20.04C125.178 19.6133 125.751 19.4 126.604 19.4C127.431 19.4 127.978 19.6133 128.244 20.04C128.538 20.4667 128.684 20.9733 128.684 21.56C128.684 22.1733 128.538 22.6933 128.244 23.12C127.978 23.52 127.431 23.7333 126.604 23.76ZM124.524 42V25.56H128.604V42H124.524ZM136.486 23.76C135.606 23.7867 135.019 23.5867 134.726 23.16C134.459 22.7067 134.326 22.1733 134.326 21.56C134.326 20.9733 134.472 20.4667 134.766 20.04C135.059 19.6133 135.632 19.4 136.486 19.4C137.312 19.4 137.859 19.6133 138.126 20.04C138.419 20.4667 138.566 20.9733 138.566 21.56C138.566 22.1733 138.419 22.6933 138.126 23.12C137.859 23.52 137.312 23.7333 136.486 23.76ZM134.406 42V25.56H138.486V42H134.406Z" fill="#CAFF01"/>
<defs>
<clipPath id="clip0_672_727">
<rect width="43" height="30" fill="white" transform="translate(0.15918 12)"/>
</clipPath>
</defs>
</svg>
