<svg width="45" height="45" viewBox="0 0 45 45" fill="none" xmlns="http://www.w3.org/2000/svg">
<path d="M22.5 39.3037C18.7325 38.185 15.6031 35.9031 13.1119 32.4581C10.6206 29.0131 9.375 25.1312 9.375 20.8125V10.6725L22.5 5.76935L35.625 10.6725V20.8125C35.625 25.13 34.3794 29.0112 31.8881 32.4562C29.3969 35.9012 26.2675 38.1825 22.5 39.3037ZM22.5 37.3143C25.5312 36.3768 28.0625 34.5256 30.0937 31.7606C32.125 28.9956 33.3125 25.9087 33.6562 22.5H22.5V7.76997L11.25 11.9531V21.6206C11.25 21.8631 11.2813 22.1562 11.3438 22.5H22.5V37.3143Z" fill="#CAFF01"/>
</svg>
