<svg width="16" height="17" viewBox="0 0 16 17" fill="none" xmlns="http://www.w3.org/2000/svg">
<path d="M6.02683 14.8677C6.66683 15.061 7.3135 15.1744 8.00016 15.1744C9.76827 15.1744 11.464 14.472 12.7142 13.2218C13.9644 11.9715 14.6668 10.2758 14.6668 8.50772C14.6668 7.63224 14.4944 6.76533 14.1594 5.95649C13.8243 5.14766 13.3333 4.41273 12.7142 3.79367C12.0951 3.17461 11.3602 2.68355 10.5514 2.34852C9.74255 2.01349 8.87564 1.84105 8.00016 1.84105C7.12468 1.84105 6.25778 2.01349 5.44894 2.34852C4.6401 2.68355 3.90517 3.17461 3.28612 3.79367C2.03587 5.04391 1.3335 6.73961 1.3335 8.50772C1.3335 11.341 3.1135 13.7744 5.62683 14.7344C5.56683 14.2144 5.50683 13.3544 5.62683 12.761L6.3935 9.46772C6.3935 9.46772 6.20016 9.08105 6.20016 8.46772C6.20016 7.54772 6.7735 6.86105 7.42683 6.86105C8.00016 6.86105 8.26683 7.28105 8.26683 7.82105C8.26683 8.39438 7.88683 9.21438 7.6935 10.001C7.58016 10.6544 8.04016 11.2277 8.70683 11.2277C9.8935 11.2277 10.8135 9.96105 10.8135 8.17438C10.8135 6.57438 9.66683 5.48105 8.02016 5.48105C6.14016 5.48105 5.0335 6.88105 5.0335 8.35438C5.0335 8.92772 5.22016 9.50772 5.52683 9.88772C5.58683 9.92772 5.58683 9.98105 5.56683 10.081L5.3735 10.8077C5.3735 10.921 5.30016 10.961 5.18683 10.881C4.3335 10.5077 3.84016 9.29438 3.84016 8.31438C3.84016 6.20772 5.3335 4.29438 8.2135 4.29438C10.5068 4.29438 12.2935 5.94105 12.2935 8.12772C12.2935 10.421 10.8735 12.261 8.84016 12.261C8.1935 12.261 7.56016 11.9144 7.3335 11.5077L6.88683 13.0877C6.7335 13.661 6.3135 14.4277 6.02683 14.8877V14.8677Z" fill="white"/>
</svg>
