<svg width="16" height="17" viewBox="0 0 16 17" fill="none" xmlns="http://www.w3.org/2000/svg">
<path d="M14.9735 4.50773C14.4602 4.74106 13.9069 4.89439 13.3335 4.96773C13.9202 4.61439 14.3735 4.05439 14.5869 3.38106C14.0335 3.71439 13.4202 3.94773 12.7735 4.08106C12.2469 3.50773 11.5069 3.17439 10.6669 3.17439C9.10019 3.17439 7.82019 4.45439 7.82019 6.03439C7.82019 6.26106 7.84686 6.48106 7.89352 6.68773C5.52019 6.56773 3.40686 5.42773 2.00019 3.70106C1.75352 4.12106 1.61352 4.61439 1.61352 5.13439C1.61352 6.12773 2.11352 7.00773 2.88686 7.50773C2.41352 7.50773 1.97352 7.37439 1.58686 7.17439V7.19439C1.58686 8.58106 2.57352 9.74106 3.88019 10.0011C3.46067 10.1159 3.02025 10.1318 2.59352 10.0477C2.77459 10.616 3.12921 11.1133 3.60753 11.4697C4.08585 11.826 4.66382 12.0235 5.26019 12.0344C4.24928 12.8347 2.99619 13.2673 1.70686 13.2611C1.48019 13.2611 1.25352 13.2477 1.02686 13.2211C2.29352 14.0344 3.80019 14.5077 5.41352 14.5077C10.6669 14.5077 13.5535 10.1477 13.5535 6.36773C13.5535 6.24106 13.5535 6.12106 13.5469 5.99439C14.1069 5.59439 14.5869 5.08773 14.9735 4.50773Z" fill="white"/>
</svg>
