<svg width="16" height="20" viewBox="0 0 16 20" fill="none" xmlns="http://www.w3.org/2000/svg">
<path d="M13.7584 12.0002C15.0005 12.0002 16.0073 13.007 16.0073 14.2491V14.8245C16.0073 15.7188 15.6877 16.5836 15.1062 17.263C13.5368 19.0965 11.1496 20.0013 8.0043 20.0013C4.8584 20.0013 2.47239 19.0962 0.906093 17.2619C0.326323 16.583 0.0078125 15.7195 0.0078125 14.8267V14.2491C0.0078125 13.007 1.01466 12.0002 2.25668 12.0002H13.7584ZM13.7584 13.5002H2.25668C1.84309 13.5002 1.50781 13.8355 1.50781 14.2491V14.8267C1.50781 15.3624 1.69892 15.8805 2.04677 16.2878C3.30008 17.7555 5.26596 18.5013 8.0043 18.5013C10.7426 18.5013 12.7102 17.7555 13.9666 16.2876C14.3156 15.8799 14.5073 15.361 14.5073 14.8245V14.2491C14.5073 13.8355 14.172 13.5002 13.7584 13.5002ZM8.0043 0.00488281C10.7657 0.00488281 13.0043 2.24346 13.0043 5.00488C13.0043 7.76631 10.7657 10.0049 8.0043 10.0049C5.24284 10.0049 3.00426 7.76631 3.00426 5.00488C3.00426 2.24346 5.24284 0.00488281 8.0043 0.00488281ZM8.0043 1.50488C6.0713 1.50488 4.50426 3.07189 4.50426 5.00488C4.50426 6.93788 6.0713 8.5049 8.0043 8.5049C9.9373 8.5049 11.5043 6.93788 11.5043 5.00488C11.5043 3.07189 9.9373 1.50488 8.0043 1.50488Z" fill="#CAFF01"/>
</svg>
