<svg width="24" height="24" viewBox="0 0 24 24" fill="none" xmlns="http://www.w3.org/2000/svg">
<path d="M11.9915 1.99609C13.439 1.99609 14.7917 2.40297 15.9392 3.11058C15.5973 3.47585 15.3329 3.91431 15.1721 4.39985C14.2496 3.82617 13.1593 3.49569 11.9915 3.49569C8.66688 3.49569 5.98388 6.16922 5.9834 9.49407V13.9025L4.6376 16.9958H19.3541L17.9997 13.9035L17.9998 9.50692L17.996 9.28178C17.9923 9.17344 17.9857 9.06586 17.9764 8.95912C18.1474 8.98472 18.3224 8.99798 18.5005 8.99798C18.8386 8.99798 19.1655 8.95018 19.4748 8.86099C19.4855 8.98748 19.4931 9.1149 19.4975 9.24319L19.5017 9.49407V13.5899L20.8836 16.7451C20.9528 16.903 20.9885 17.0734 20.9885 17.2457C20.9885 17.9359 20.428 18.4954 19.7368 18.4954L14.9956 18.4969C14.9956 20.1533 13.6506 21.4961 11.9915 21.4961C10.3917 21.4961 9.08395 20.2475 8.99258 18.6731L8.98703 18.4946L4.25593 18.4954C4.08435 18.4954 3.91461 18.4602 3.75725 18.392C3.12319 18.117 2.83244 17.3809 3.10785 16.7479L4.48137 13.5909V9.49396C4.48196 5.34029 7.83801 1.99609 11.9915 1.99609ZM13.4931 18.4946L10.4895 18.4969C10.4895 19.3251 11.162 19.9965 11.9915 19.9965C12.7723 19.9965 13.4139 19.4018 13.4867 18.6413L13.4931 18.4946ZM16.0369 5.05266C16.1321 4.52552 16.3928 4.05584 16.7634 3.6992C17.2136 3.26601 17.8259 2.99961 18.5005 2.99961C19.8831 2.99961 21.0039 4.11859 21.0039 5.49893C21.0039 6.59182 20.3013 7.52087 19.3224 7.86042C19.065 7.94973 18.7884 7.99826 18.5005 7.99826C18.2521 7.99826 18.0122 7.96214 17.7857 7.89488C16.7514 7.58775 15.9971 6.63128 15.9971 5.49893C15.9971 5.34661 16.0108 5.19746 16.0369 5.05266Z" fill="#CAFF01"/>
</svg>
