<svg width="24" height="24" viewBox="0 0 24 24" fill="none" xmlns="http://www.w3.org/2000/svg">
<path d="M2.00391 6C2.00391 4.89543 2.89934 4 4.00391 4H20.0039C21.1085 4 22.0039 4.89543 22.0039 6V18C22.0039 19.1046 21.1085 20 20.0039 20H12.5057C12.7035 19.5258 12.8467 19.0232 12.9275 18.5H20.0039C20.28 18.5 20.5039 18.2761 20.5039 18V6C20.5039 5.72386 20.28 5.5 20.0039 5.5H7.50391V11.0764C7.17794 11.0261 6.84398 11 6.50391 11C6.33567 11 6.16893 11.0064 6.00391 11.0189V5.5H4.00391C3.72777 5.5 3.50391 5.72386 3.50391 6V11.7322C2.95289 12.0194 2.44818 12.3832 2.00391 12.8096V6ZM12.0039 7C10.8993 7 10.0039 7.89543 10.0039 9V10C10.0039 11.1046 10.8993 12 12.0039 12H16.0039C17.1085 12 18.0039 11.1046 18.0039 10V9C18.0039 7.89543 17.1085 7 16.0039 7H12.0039ZM16.0039 8.5C16.28 8.5 16.5039 8.72386 16.5039 9V10C16.5039 10.2761 16.28 10.5 16.0039 10.5H12.0039C11.7278 10.5 11.5039 10.2761 11.5039 10V9C11.5039 8.72386 11.7278 8.5 12.0039 8.5H16.0039ZM6.50391 12C9.54148 12 12.0039 14.4624 12.0039 17.5C12.0039 20.5376 9.54148 23 6.50391 23C3.46634 23 1.00391 20.5376 1.00391 17.5C1.00391 14.4624 3.46634 12 6.50391 12ZM7.00502 20.5035L7.00456 18H9.5005C9.77637 18 10 17.7762 10 17.5C10 17.2239 9.77637 17 9.5005 17H7.00437L7.00391 14.4993C7.00391 14.2231 6.78005 13.9993 6.50391 13.9993C6.22777 13.9993 6.00391 14.2231 6.00391 14.4993L6.00437 17H3.49951C3.22364 17 3 17.2239 3 17.5C3 17.7762 3.22364 18 3.49951 18H6.00456L6.00502 20.5035C6.00502 20.7797 6.22888 21.0035 6.50502 21.0035C6.78116 21.0035 7.00502 20.7797 7.00502 20.5035Z" fill="#CAFF01"/>
</svg>
